<mxfile host="app.diagrams.net" modified="2023-06-11T08:18:16.675Z" agent="Mozilla/5.0 (Windows NT 10.0; Win64; x64) AppleWebKit/537.36 (KHTML, like Gecko) Chrome/114.0.0.0 Safari/537.36" etag="fwrqfLc_N-lzTSq9Qelt" version="21.3.8" type="github">
  <diagram id="tjxPVpLADmy-XOFSmjK_" name="Usecase tổng quát">
    <mxGraphModel dx="1434" dy="1925" grid="0" gridSize="10" guides="1" tooltips="1" connect="1" arrows="1" fold="1" page="1" pageScale="1" pageWidth="827" pageHeight="1169" math="0" shadow="0">
      <root>
        <mxCell id="0" />
        <mxCell id="1" parent="0" />
        <mxCell id="m2j4bGymZEAPeK17LnqT-22" value="" style="rounded=0;whiteSpace=wrap;html=1;gradientColor=none;" parent="1" vertex="1">
          <mxGeometry x="120" y="-80" width="560" height="680" as="geometry" />
        </mxCell>
        <mxCell id="m2j4bGymZEAPeK17LnqT-32" value="" style="rounded=1;orthogonalLoop=1;jettySize=auto;html=1;endArrow=none;endFill=0;exitX=1;exitY=0.3333333333333333;exitDx=0;exitDy=0;exitPerimeter=0;entryX=0;entryY=1;entryDx=0;entryDy=0;" parent="1" source="m2j4bGymZEAPeK17LnqT-15" target="m2j4bGymZEAPeK17LnqT-31" edge="1">
          <mxGeometry relative="1" as="geometry" />
        </mxCell>
        <mxCell id="m2j4bGymZEAPeK17LnqT-15" value="&lt;b&gt;Admin&lt;/b&gt;" style="shape=umlActor;verticalLabelPosition=bottom;verticalAlign=top;html=1;outlineConnect=0;" parent="1" vertex="1">
          <mxGeometry x="40" y="120" width="40" height="80" as="geometry" />
        </mxCell>
        <mxCell id="m2j4bGymZEAPeK17LnqT-31" value="Quản lý người dùng" style="ellipse;whiteSpace=wrap;html=1;verticalAlign=middle;" parent="1" vertex="1">
          <mxGeometry x="160" y="-40" width="120" height="60" as="geometry" />
        </mxCell>
        <mxCell id="m2j4bGymZEAPeK17LnqT-33" value="" style="rounded=1;orthogonalLoop=1;jettySize=auto;html=1;endArrow=none;endFill=0;exitX=1;exitY=0.3333333333333333;exitDx=0;exitDy=0;exitPerimeter=0;entryX=0;entryY=0.5;entryDx=0;entryDy=0;" parent="1" source="m2j4bGymZEAPeK17LnqT-15" target="m2j4bGymZEAPeK17LnqT-34" edge="1">
          <mxGeometry relative="1" as="geometry">
            <mxPoint x="110" y="254.61538461538464" as="sourcePoint" />
          </mxGeometry>
        </mxCell>
        <mxCell id="m2j4bGymZEAPeK17LnqT-34" value="Đăng nhập" style="ellipse;whiteSpace=wrap;html=1;verticalAlign=middle;" parent="1" vertex="1">
          <mxGeometry x="360" y="210" width="120" height="60" as="geometry" />
        </mxCell>
        <mxCell id="m2j4bGymZEAPeK17LnqT-35" value="" style="rounded=1;orthogonalLoop=1;jettySize=auto;html=1;endArrow=none;endFill=0;exitX=1;exitY=0.3333333333333333;exitDx=0;exitDy=0;exitPerimeter=0;entryX=0.5;entryY=0;entryDx=0;entryDy=0;" parent="1" source="m2j4bGymZEAPeK17LnqT-15" target="m2j4bGymZEAPeK17LnqT-36" edge="1">
          <mxGeometry relative="1" as="geometry">
            <mxPoint x="120" y="444.61538461538464" as="sourcePoint" />
          </mxGeometry>
        </mxCell>
        <mxCell id="m2j4bGymZEAPeK17LnqT-36" value="Quản lý khóa học" style="ellipse;whiteSpace=wrap;html=1;verticalAlign=middle;" parent="1" vertex="1">
          <mxGeometry x="140" y="500" width="120" height="60" as="geometry" />
        </mxCell>
        <mxCell id="m2j4bGymZEAPeK17LnqT-38" value="" style="rounded=1;orthogonalLoop=1;jettySize=auto;html=1;endArrow=none;endFill=0;exitX=1;exitY=0.3333333333333333;exitDx=0;exitDy=0;exitPerimeter=0;entryX=0;entryY=0.5;entryDx=0;entryDy=0;" parent="1" source="m2j4bGymZEAPeK17LnqT-15" target="m2j4bGymZEAPeK17LnqT-39" edge="1">
          <mxGeometry relative="1" as="geometry">
            <mxPoint x="90" y="230" as="sourcePoint" />
          </mxGeometry>
        </mxCell>
        <mxCell id="m2j4bGymZEAPeK17LnqT-39" value="Quản lý ca học" style="ellipse;whiteSpace=wrap;html=1;verticalAlign=middle;" parent="1" vertex="1">
          <mxGeometry x="340" y="-50" width="120" height="60" as="geometry" />
        </mxCell>
        <mxCell id="m2j4bGymZEAPeK17LnqT-40" value="" style="rounded=1;orthogonalLoop=1;jettySize=auto;html=1;endArrow=none;endFill=0;entryX=0;entryY=0.5;entryDx=0;entryDy=0;exitX=1;exitY=0.3333333333333333;exitDx=0;exitDy=0;exitPerimeter=0;" parent="1" source="m2j4bGymZEAPeK17LnqT-15" target="m2j4bGymZEAPeK17LnqT-41" edge="1">
          <mxGeometry relative="1" as="geometry">
            <mxPoint x="90" y="150" as="sourcePoint" />
          </mxGeometry>
        </mxCell>
        <mxCell id="m2j4bGymZEAPeK17LnqT-41" value="Quản lý lớp học" style="ellipse;whiteSpace=wrap;html=1;verticalAlign=middle;" parent="1" vertex="1">
          <mxGeometry x="340" y="30" width="120" height="60" as="geometry" />
        </mxCell>
        <mxCell id="m2j4bGymZEAPeK17LnqT-44" value="" style="edgeStyle=none;rounded=1;orthogonalLoop=1;jettySize=auto;html=1;endArrow=none;endFill=0;exitX=0;exitY=0.3333333333333333;exitDx=0;exitDy=0;exitPerimeter=0;entryX=1;entryY=0.5;entryDx=0;entryDy=0;" parent="1" source="m2j4bGymZEAPeK17LnqT-42" target="m2j4bGymZEAPeK17LnqT-41" edge="1">
          <mxGeometry relative="1" as="geometry" />
        </mxCell>
        <mxCell id="m2j4bGymZEAPeK17LnqT-42" value="&lt;b&gt;Giảng viên&lt;/b&gt;" style="shape=umlActor;verticalLabelPosition=bottom;verticalAlign=top;html=1;outlineConnect=0;gradientColor=none;" parent="1" vertex="1">
          <mxGeometry x="720" y="120" width="40" height="80" as="geometry" />
        </mxCell>
        <mxCell id="m2j4bGymZEAPeK17LnqT-46" value="" style="edgeStyle=none;rounded=1;orthogonalLoop=1;jettySize=auto;html=1;endArrow=none;endFill=0;entryX=1;entryY=0.5;entryDx=0;entryDy=0;exitX=0;exitY=0.3333333333333333;exitDx=0;exitDy=0;exitPerimeter=0;" parent="1" source="m2j4bGymZEAPeK17LnqT-42" target="m2j4bGymZEAPeK17LnqT-39" edge="1">
          <mxGeometry relative="1" as="geometry">
            <mxPoint x="740" y="184.29447852760734" as="sourcePoint" />
            <mxPoint x="434" y="250" as="targetPoint" />
          </mxGeometry>
        </mxCell>
        <mxCell id="m2j4bGymZEAPeK17LnqT-48" value="Quản lý thanh toán học phí" style="ellipse;whiteSpace=wrap;html=1;verticalAlign=middle;" parent="1" vertex="1">
          <mxGeometry x="253" y="350" width="160" height="70" as="geometry" />
        </mxCell>
        <mxCell id="m2j4bGymZEAPeK17LnqT-49" value="" style="rounded=1;orthogonalLoop=1;jettySize=auto;html=1;endArrow=none;endFill=0;exitX=1;exitY=0.3333333333333333;exitDx=0;exitDy=0;exitPerimeter=0;entryX=0;entryY=0.5;entryDx=0;entryDy=0;" parent="1" source="m2j4bGymZEAPeK17LnqT-15" target="m2j4bGymZEAPeK17LnqT-48" edge="1">
          <mxGeometry relative="1" as="geometry">
            <mxPoint x="90" y="156.66666666666663" as="sourcePoint" />
            <mxPoint x="342.0767860199762" y="251.948922734191" as="targetPoint" />
          </mxGeometry>
        </mxCell>
        <mxCell id="m2j4bGymZEAPeK17LnqT-51" value="&lt;b&gt;Hỗ trợ&lt;/b&gt;" style="shape=umlActor;verticalLabelPosition=bottom;verticalAlign=top;html=1;outlineConnect=0;" parent="1" vertex="1">
          <mxGeometry x="40" y="360" width="40" height="80" as="geometry" />
        </mxCell>
        <mxCell id="m2j4bGymZEAPeK17LnqT-52" value="" style="rounded=1;orthogonalLoop=1;jettySize=auto;html=1;endArrow=none;endFill=0;exitX=1;exitY=0.3333333333333333;exitDx=0;exitDy=0;exitPerimeter=0;entryX=0.5;entryY=0;entryDx=0;entryDy=0;" parent="1" source="m2j4bGymZEAPeK17LnqT-51" target="m2j4bGymZEAPeK17LnqT-36" edge="1">
          <mxGeometry relative="1" as="geometry">
            <mxPoint x="130" y="309.99666666666656" as="sourcePoint" />
            <mxPoint x="238.4031851709733" y="397.8268566022854" as="targetPoint" />
          </mxGeometry>
        </mxCell>
        <mxCell id="m2j4bGymZEAPeK17LnqT-55" value="&lt;b&gt;Học viên&lt;/b&gt;" style="shape=umlActor;verticalLabelPosition=bottom;verticalAlign=top;html=1;outlineConnect=0;" parent="1" vertex="1">
          <mxGeometry x="720" y="360" width="40" height="80" as="geometry" />
        </mxCell>
        <mxCell id="m2j4bGymZEAPeK17LnqT-58" value="" style="edgeStyle=none;rounded=1;orthogonalLoop=1;jettySize=auto;html=1;endArrow=none;endFill=0;exitX=0;exitY=0.3333333333333333;exitDx=0;exitDy=0;exitPerimeter=0;entryX=1;entryY=0.5;entryDx=0;entryDy=0;" parent="1" source="m2j4bGymZEAPeK17LnqT-55" target="m2j4bGymZEAPeK17LnqT-34" edge="1">
          <mxGeometry relative="1" as="geometry">
            <mxPoint x="730" y="156.66666666666697" as="sourcePoint" />
            <mxPoint x="469.99999999999636" y="240" as="targetPoint" />
          </mxGeometry>
        </mxCell>
        <mxCell id="m2j4bGymZEAPeK17LnqT-59" value="Quản lý đánh giá&amp;nbsp;" style="ellipse;whiteSpace=wrap;html=1;verticalAlign=middle;" parent="1" vertex="1">
          <mxGeometry x="175" y="217" width="120" height="60" as="geometry" />
        </mxCell>
        <mxCell id="m2j4bGymZEAPeK17LnqT-60" value="" style="rounded=1;orthogonalLoop=1;jettySize=auto;html=1;endArrow=none;endFill=0;exitX=1;exitY=0.3333333333333333;exitDx=0;exitDy=0;exitPerimeter=0;entryX=0;entryY=0;entryDx=0;entryDy=0;" parent="1" source="m2j4bGymZEAPeK17LnqT-15" target="m2j4bGymZEAPeK17LnqT-59" edge="1">
          <mxGeometry relative="1" as="geometry">
            <mxPoint x="90" y="156.66666666666697" as="sourcePoint" />
            <mxPoint x="350.0000000000032" y="240" as="targetPoint" />
          </mxGeometry>
        </mxCell>
        <mxCell id="m2j4bGymZEAPeK17LnqT-61" value="" style="rounded=1;orthogonalLoop=1;jettySize=auto;html=1;endArrow=none;endFill=0;exitX=1;exitY=0.3333333333333333;exitDx=0;exitDy=0;exitPerimeter=0;entryX=0;entryY=0.5;entryDx=0;entryDy=0;" parent="1" source="m2j4bGymZEAPeK17LnqT-51" target="m2j4bGymZEAPeK17LnqT-48" edge="1">
          <mxGeometry relative="1" as="geometry">
            <mxPoint x="90" y="396.66666666666697" as="sourcePoint" />
            <mxPoint x="180" y="400" as="targetPoint" />
          </mxGeometry>
        </mxCell>
        <mxCell id="m2j4bGymZEAPeK17LnqT-64" value="" style="edgeStyle=none;rounded=1;orthogonalLoop=1;jettySize=auto;html=1;endArrow=none;endFill=0;exitX=0;exitY=0.3333333333333333;exitDx=0;exitDy=0;exitPerimeter=0;entryX=1;entryY=0.5;entryDx=0;entryDy=0;" parent="1" source="m2j4bGymZEAPeK17LnqT-55" target="m2j4bGymZEAPeK17LnqT-63" edge="1">
          <mxGeometry relative="1" as="geometry">
            <mxPoint x="730" y="396.66666666666697" as="sourcePoint" />
            <mxPoint x="469.99999999999636" y="160" as="targetPoint" />
          </mxGeometry>
        </mxCell>
        <mxCell id="m2j4bGymZEAPeK17LnqT-65" value="" style="edgeStyle=none;rounded=1;orthogonalLoop=1;jettySize=auto;html=1;endArrow=none;endFill=0;exitX=0;exitY=0.3333333333333333;exitDx=0;exitDy=0;exitPerimeter=0;entryX=1;entryY=0.5;entryDx=0;entryDy=0;" parent="1" source="m2j4bGymZEAPeK17LnqT-55" target="m2j4bGymZEAPeK17LnqT-48" edge="1">
          <mxGeometry relative="1" as="geometry">
            <mxPoint x="740" y="406.66666666666697" as="sourcePoint" />
            <mxPoint x="479.99999999999636" y="170" as="targetPoint" />
          </mxGeometry>
        </mxCell>
        <mxCell id="m2j4bGymZEAPeK17LnqT-66" value="Đánh giá khóa học" style="ellipse;whiteSpace=wrap;html=1;verticalAlign=middle;" parent="1" vertex="1">
          <mxGeometry x="419" y="400" width="120" height="60" as="geometry" />
        </mxCell>
        <mxCell id="m2j4bGymZEAPeK17LnqT-67" value="" style="edgeStyle=none;rounded=1;orthogonalLoop=1;jettySize=auto;html=1;endArrow=none;endFill=0;exitX=0;exitY=0.3333333333333333;exitDx=0;exitDy=0;exitPerimeter=0;entryX=1;entryY=0.5;entryDx=0;entryDy=0;" parent="1" source="m2j4bGymZEAPeK17LnqT-55" target="m2j4bGymZEAPeK17LnqT-66" edge="1">
          <mxGeometry relative="1" as="geometry">
            <mxPoint x="610" y="309.99666666666695" as="sourcePoint" />
            <mxPoint x="359.99999999999636" y="83.33" as="targetPoint" />
          </mxGeometry>
        </mxCell>
        <mxCell id="m2j4bGymZEAPeK17LnqT-68" value="" style="rounded=1;orthogonalLoop=1;jettySize=auto;html=1;endArrow=none;endFill=0;entryX=0;entryY=0.5;entryDx=0;entryDy=0;exitX=1;exitY=0.3333333333333333;exitDx=0;exitDy=0;exitPerimeter=0;" parent="1" source="m2j4bGymZEAPeK17LnqT-15" target="m2j4bGymZEAPeK17LnqT-69" edge="1">
          <mxGeometry relative="1" as="geometry">
            <mxPoint x="80" y="150" as="sourcePoint" />
          </mxGeometry>
        </mxCell>
        <mxCell id="m2j4bGymZEAPeK17LnqT-69" value="Quản lý tài liệu" style="ellipse;whiteSpace=wrap;html=1;verticalAlign=middle;" parent="1" vertex="1">
          <mxGeometry x="340" y="120" width="120" height="60" as="geometry" />
        </mxCell>
        <mxCell id="m2j4bGymZEAPeK17LnqT-70" value="" style="edgeStyle=none;rounded=1;orthogonalLoop=1;jettySize=auto;html=1;endArrow=none;endFill=0;exitX=0;exitY=0.3333333333333333;exitDx=0;exitDy=0;exitPerimeter=0;entryX=1;entryY=0.5;entryDx=0;entryDy=0;" parent="1" source="m2j4bGymZEAPeK17LnqT-42" target="m2j4bGymZEAPeK17LnqT-69" edge="1">
          <mxGeometry relative="1" as="geometry">
            <mxPoint x="733" y="199.99666666666695" as="sourcePoint" />
          </mxGeometry>
        </mxCell>
        <mxCell id="m2j4bGymZEAPeK17LnqT-71" value="" style="rounded=1;orthogonalLoop=1;jettySize=auto;html=1;endArrow=none;endFill=0;exitX=1;exitY=0.3333333333333333;exitDx=0;exitDy=0;exitPerimeter=0;entryX=0;entryY=0.5;entryDx=0;entryDy=0;" parent="1" source="m2j4bGymZEAPeK17LnqT-51" target="m2j4bGymZEAPeK17LnqT-34" edge="1">
          <mxGeometry relative="1" as="geometry">
            <mxPoint x="90" y="156.66666666666697" as="sourcePoint" />
            <mxPoint x="350" y="230" as="targetPoint" />
          </mxGeometry>
        </mxCell>
        <mxCell id="5vuPEq926WPR1Q5U1pR7-1" value="Đăng ký tài khoản" style="ellipse;whiteSpace=wrap;html=1;verticalAlign=middle;" vertex="1" parent="1">
          <mxGeometry x="503" y="485" width="120" height="60" as="geometry" />
        </mxCell>
        <mxCell id="5vuPEq926WPR1Q5U1pR7-2" value="" style="edgeStyle=none;rounded=1;orthogonalLoop=1;jettySize=auto;html=1;endArrow=none;endFill=0;entryX=1;entryY=0.5;entryDx=0;entryDy=0;exitX=0;exitY=0.3333333333333333;exitDx=0;exitDy=0;exitPerimeter=0;" edge="1" parent="1" source="m2j4bGymZEAPeK17LnqT-55" target="5vuPEq926WPR1Q5U1pR7-1">
          <mxGeometry relative="1" as="geometry">
            <mxPoint x="720" y="390" as="sourcePoint" />
            <mxPoint x="600" y="440" as="targetPoint" />
          </mxGeometry>
        </mxCell>
        <mxCell id="5vuPEq926WPR1Q5U1pR7-3" value="Xem, tải xuống tài liệu" style="ellipse;whiteSpace=wrap;html=1;verticalAlign=middle;" vertex="1" parent="1">
          <mxGeometry x="337" y="490" width="130" height="60" as="geometry" />
        </mxCell>
        <mxCell id="5vuPEq926WPR1Q5U1pR7-4" value="" style="edgeStyle=none;rounded=1;orthogonalLoop=1;jettySize=auto;html=1;endArrow=none;endFill=0;entryX=0.938;entryY=0.267;entryDx=0;entryDy=0;exitX=0;exitY=0.3333333333333333;exitDx=0;exitDy=0;exitPerimeter=0;entryPerimeter=0;" edge="1" parent="1" target="5vuPEq926WPR1Q5U1pR7-3" source="m2j4bGymZEAPeK17LnqT-55">
          <mxGeometry relative="1" as="geometry">
            <mxPoint x="720" y="390" as="sourcePoint" />
            <mxPoint x="219.99999999999636" y="169.66" as="targetPoint" />
          </mxGeometry>
        </mxCell>
        <mxCell id="5vuPEq926WPR1Q5U1pR7-7" value="&lt;b&gt;Người dùng vãng lai&lt;/b&gt;" style="shape=umlActor;verticalLabelPosition=bottom;verticalAlign=top;html=1;outlineConnect=0;" vertex="1" parent="1">
          <mxGeometry x="727" y="505" width="40" height="80" as="geometry" />
        </mxCell>
        <mxCell id="5vuPEq926WPR1Q5U1pR7-8" value="" style="edgeStyle=none;rounded=1;orthogonalLoop=1;jettySize=auto;html=1;endArrow=none;endFill=0;exitX=0;exitY=0.3333333333333333;exitDx=0;exitDy=0;exitPerimeter=0;entryX=1;entryY=0.5;entryDx=0;entryDy=0;" edge="1" parent="1" source="m2j4bGymZEAPeK17LnqT-42" target="m2j4bGymZEAPeK17LnqT-34">
          <mxGeometry relative="1" as="geometry">
            <mxPoint x="720" y="147" as="sourcePoint" />
            <mxPoint x="480" y="240" as="targetPoint" />
          </mxGeometry>
        </mxCell>
        <mxCell id="m2j4bGymZEAPeK17LnqT-63" value="Đăng ký khóa học" style="ellipse;whiteSpace=wrap;html=1;verticalAlign=middle;" parent="1" vertex="1">
          <mxGeometry x="413" y="287" width="120" height="60" as="geometry" />
        </mxCell>
        <mxCell id="5vuPEq926WPR1Q5U1pR7-9" value="" style="edgeStyle=none;rounded=1;orthogonalLoop=1;jettySize=auto;html=1;endArrow=none;endFill=0;entryX=1;entryY=0.5;entryDx=0;entryDy=0;exitX=0;exitY=0.3333333333333333;exitDx=0;exitDy=0;exitPerimeter=0;" edge="1" parent="1" source="5vuPEq926WPR1Q5U1pR7-7" target="5vuPEq926WPR1Q5U1pR7-1">
          <mxGeometry relative="1" as="geometry">
            <mxPoint x="730" y="397" as="sourcePoint" />
            <mxPoint x="633" y="525" as="targetPoint" />
          </mxGeometry>
        </mxCell>
      </root>
    </mxGraphModel>
  </diagram>
</mxfile>
